<svg width="1000" height="1000" viewBox="0 0 1000 1000" fill="none" xmlns="http://www.w3.org/2000/svg">
<circle cx="500" cy="500" r="500" fill="black"/>
<path d="M129.327 558V446H184.047C198.127 446 208.687 448.667 215.727 454C222.874 459.333 226.447 466.373 226.447 475.12C226.447 480.987 225.007 486.107 222.127 490.48C219.247 494.747 215.3 498.053 210.287 500.4C205.274 502.747 199.514 503.92 193.007 503.92L196.047 497.36C203.087 497.36 209.327 498.533 214.767 500.88C220.207 503.12 224.42 506.48 227.407 510.96C230.5 515.44 232.047 520.933 232.047 527.44C232.047 537.04 228.26 544.56 220.687 550C213.114 555.333 201.967 558 187.247 558H129.327ZM155.087 538.48H185.327C192.047 538.48 197.114 537.413 200.527 535.28C204.047 533.04 205.807 529.52 205.807 524.72C205.807 520.027 204.047 516.56 200.527 514.32C197.114 511.973 192.047 510.8 185.327 510.8H153.167V491.92H180.847C187.14 491.92 191.94 490.853 195.247 488.72C198.66 486.48 200.367 483.12 200.367 478.64C200.367 474.267 198.66 471.013 195.247 468.88C191.94 466.64 187.14 465.52 180.847 465.52H155.087V538.48Z" fill="#FCBA03"/>
<path d="M306.071 559.92C297.217 559.92 289.004 558.48 281.431 555.6C273.964 552.72 267.457 548.667 261.911 543.44C256.471 538.213 252.204 532.08 249.111 525.04C246.124 518 244.631 510.32 244.631 502C244.631 493.68 246.124 486 249.111 478.96C252.204 471.92 256.524 465.787 262.071 460.56C267.617 455.333 274.124 451.28 281.591 448.4C289.057 445.52 297.164 444.08 305.911 444.08C314.764 444.08 322.871 445.52 330.231 448.4C337.697 451.28 344.151 455.333 349.591 460.56C355.137 465.787 359.457 471.92 362.551 478.96C365.644 485.893 367.191 493.573 367.191 502C367.191 510.32 365.644 518.053 362.551 525.2C359.457 532.24 355.137 538.373 349.591 543.6C344.151 548.72 337.697 552.72 330.231 555.6C322.871 558.48 314.817 559.92 306.071 559.92ZM305.911 537.84C310.924 537.84 315.511 536.987 319.671 535.28C323.937 533.573 327.671 531.12 330.871 527.92C334.071 524.72 336.524 520.933 338.231 516.56C340.044 512.187 340.951 507.333 340.951 502C340.951 496.667 340.044 491.813 338.231 487.44C336.524 483.067 334.071 479.28 330.871 476.08C327.777 472.88 324.097 470.427 319.831 468.72C315.564 467.013 310.924 466.16 305.911 466.16C300.897 466.16 296.257 467.013 291.991 468.72C287.831 470.427 284.151 472.88 280.951 476.08C277.751 479.28 275.244 483.067 273.431 487.44C271.724 491.813 270.871 496.667 270.871 502C270.871 507.227 271.724 512.08 273.431 516.56C275.244 520.933 277.697 524.72 280.791 527.92C283.991 531.12 287.724 533.573 291.991 535.28C296.257 536.987 300.897 537.84 305.911 537.84ZM463.471 446H489.391V558H463.471V446ZM412.591 558H386.671V446H412.591V558ZM465.391 512.08H410.671V490.16H465.391V512.08ZM515.889 558V446H566.769C578.929 446 589.649 448.347 598.929 453.04C608.209 457.627 615.463 464.08 620.689 472.4C625.916 480.72 628.529 490.587 628.529 502C628.529 513.307 625.916 523.173 620.689 531.6C615.463 539.92 608.209 546.427 598.929 551.12C589.649 555.707 578.929 558 566.769 558H515.889ZM541.809 536.72H565.489C572.956 536.72 579.409 535.333 584.849 532.56C590.396 529.68 594.663 525.627 597.649 520.4C600.743 515.173 602.289 509.04 602.289 502C602.289 494.853 600.743 488.72 597.649 483.6C594.663 478.373 590.396 474.373 584.849 471.6C579.409 468.72 572.956 467.28 565.489 467.28H541.809V536.72ZM631.794 558L681.714 446H707.314L757.394 558H730.194L689.234 459.12H699.474L658.354 558H631.794ZM656.754 534L663.634 514.32H721.234L728.274 534H656.754ZM769.014 558V446H790.454L856.534 526.64H846.134V446H871.734V558H850.454L784.214 477.36H794.614V558H769.014Z" fill="white"/>
<rect x="250" y="353" width="500" height="50" fill="#CACACA" fill-opacity="0.5"/>
<rect x="250" y="598" width="500" height="50" fill="#CACACA" fill-opacity="0.5"/>
<rect x="300" y="680" width="400" height="50" fill="#CACACA" fill-opacity="0.6"/>
<rect x="350" y="762" width="300" height="50" fill="#CACACA" fill-opacity="0.8"/>
<rect x="350" y="189" width="300" height="50" fill="#CACACA" fill-opacity="0.8"/>
<rect x="400" y="107" width="200" height="50" fill="#CACACA" fill-opacity="0.9"/>
<rect x="400" y="844" width="200" height="50" fill="#CACACA" fill-opacity="0.9"/>
<rect x="450" y="926" width="100" height="50" fill="#CACACA"/>
<rect x="450" y="25" width="100" height="50" fill="#CACACA"/>
<rect x="300" y="271" width="400" height="50" fill="#CACACA" fill-opacity="0.6"/>
</svg>
