<svg width="250" height="250" viewBox="0 0 250 250" fill="none" xmlns="http://www.w3.org/2000/svg">
<circle cx="123" cy="211" r="25" fill="white"/>
<path d="M75.6081 164V52H130.328C144.408 52 154.968 54.6667 162.008 60C169.155 65.3333 172.728 72.3733 172.728 81.12C172.728 86.9867 171.288 92.1067 168.408 96.48C165.528 100.747 161.581 104.053 156.568 106.4C151.555 108.747 145.795 109.92 139.288 109.92L142.328 103.36C149.368 103.36 155.608 104.533 161.048 106.88C166.488 109.12 170.701 112.48 173.688 116.96C176.781 121.44 178.328 126.933 178.328 133.44C178.328 143.04 174.541 150.56 166.968 156C159.395 161.333 148.248 164 133.528 164H75.6081ZM101.368 144.48H131.608C138.328 144.48 143.395 143.413 146.808 141.28C150.328 139.04 152.088 135.52 152.088 130.72C152.088 126.027 150.328 122.56 146.808 120.32C143.395 117.973 138.328 116.8 131.608 116.8H99.4481V97.92H127.128C133.421 97.92 138.221 96.8533 141.528 94.72C144.941 92.48 146.648 89.12 146.648 84.64C146.648 80.2667 144.941 77.0133 141.528 74.88C138.221 72.64 133.421 71.52 127.128 71.52H101.368V144.48Z" fill="#FCBA03"/>
</svg>
